<?xml version="1.0" encoding="UTF-8"?>
<svg version="1.1" xmlns="http://www.w3.org/2000/svg" width="341" height="281">
<path d="M0 0 C112.53 0 225.06 0 341 0 C341 92.73 341 185.46 341 281 C228.47 281 115.94 281 0 281 C0 188.27 0 95.54 0 0 Z " fill="#D4E5D1" transform="translate(0,0)"/>
<path d="M0 0 C1.02996094 0.37382813 2.05992187 0.74765625 3.12109375 1.1328125 C25.70858806 9.82252369 42.39518891 27.90203399 52.75 49.4375 C55.49874925 55.75219422 57.27087931 62.34627577 59 69 C59.17724609 69.64050293 59.35449219 70.28100586 59.53710938 70.94091797 C60.33561898 74.49293801 60.23481416 78.05993733 60.25 81.6875 C60.25394775 82.49461426 60.25789551 83.30172852 60.26196289 84.13330078 C60.20441049 90.00839218 59.17329623 94.51951385 57 100 C57.3941057 102.61764031 57.8973053 103.86307374 59.5 106 C62.60061609 110.13415479 62.50080303 114.98286421 62 120 C60.37018597 126.96841748 56.97202221 131.01865186 51 135 C49.34450469 135.38499891 47.6777567 135.72793135 46 136 C45.82984375 136.83144531 45.6596875 137.66289062 45.484375 138.51953125 C45.12085938 140.14955078 45.12085938 140.14955078 44.75 141.8125 C44.40195312 143.43091797 44.40195312 143.43091797 44.046875 145.08203125 C42.84367004 148.43574059 42.20009248 149.46975444 39 151 C33.23402381 151.37573238 28.24193147 150.32016956 22.70703125 148.91796875 C21.83858078 148.70312332 20.97013031 148.48827789 20.07536316 148.266922 C18.24982284 147.81281285 16.42531305 147.35454277 14.60180664 146.89233398 C11.81381332 146.18783186 9.02160617 145.50233647 6.22851562 144.81835938 C4.45023629 144.37353181 2.67223128 143.92760583 0.89453125 143.48046875 C0.0621846 143.27721481 -0.77016205 143.07396088 -1.62773132 142.86454773 C-9.11089962 140.94087463 -9.11089962 140.94087463 -12 138 C-12 137.34 -12 136.68 -12 136 C-12.79994385 136.01047363 -13.5998877 136.02094727 -14.42407227 136.03173828 C-43.77148087 136.36544757 -43.77148087 136.36544757 -56 134 C-56.11988281 135.09570312 -56.23976562 136.19140625 -56.36328125 137.3203125 C-57.14793764 141.85495251 -58.36259264 143.25173666 -62 146 C-63.051875 146.165 -64.10375 146.33 -65.1875 146.5 C-66.115625 146.665 -67.04375 146.83 -68 147 C-69.45291273 149.46255685 -69.45291273 149.46255685 -70 152 C-76.4295082 153.33442623 -76.4295082 153.33442623 -78.8125 151.9375 C-80 150 -80 150 -80.8125 147.125 C-82.33871797 143.10863693 -84.67376453 141.63326974 -88 139 C-89.82909981 136.09173131 -90.27310276 133.85093237 -90.25 130.4375 C-90.25515625 129.67308594 -90.2603125 128.90867188 -90.265625 128.12109375 C-90 126 -90 126 -88 123 C-88.99 122.7215625 -88.99 122.7215625 -90 122.4375 C-100.28076774 117.51129879 -105.99239486 108.28023807 -109.875 97.9375 C-115.88960771 79.66030178 -110.22348949 60.88974284 -102.3125 44.0625 C-98.94268414 37.47721098 -94.60265967 31.7658773 -90 26 C-89.319375 25.12730469 -88.63875 24.25460938 -87.9375 23.35546875 C-79.27207052 12.82068251 -65.69914438 4.71880775 -53 0 C-51.95328125 -0.391875 -50.9065625 -0.78375 -49.828125 -1.1875 C-33.95055574 -6.26832216 -15.53024648 -6.13194248 0 0 Z " fill="#AF9D8E" transform="translate(177,51)"/>
<path d="M0 0 C1.02996094 0.37382813 2.05992187 0.74765625 3.12109375 1.1328125 C25.70858806 9.82252369 42.39518891 27.90203399 52.75 49.4375 C55.49874925 55.75219422 57.27087931 62.34627577 59 69 C59.17724609 69.64050293 59.35449219 70.28100586 59.53710938 70.94091797 C60.33561898 74.49293801 60.23481416 78.05993733 60.25 81.6875 C60.25394775 82.49461426 60.25789551 83.30172852 60.26196289 84.13330078 C60.20441049 90.00839218 59.17329623 94.51951385 57 100 C57.3941057 102.61764031 57.8973053 103.86307374 59.5 106 C62.60061609 110.13415479 62.50080303 114.98286421 62 120 C60.37018597 126.96841748 56.97202221 131.01865186 51 135 C49.34450469 135.38499891 47.6777567 135.72793135 46 136 C45.82984375 136.83144531 45.6596875 137.66289062 45.484375 138.51953125 C45.12085938 140.14955078 45.12085938 140.14955078 44.75 141.8125 C44.40195312 143.43091797 44.40195312 143.43091797 44.046875 145.08203125 C42.84367004 148.43574059 42.20009248 149.46975444 39 151 C33.23402381 151.37573238 28.24193147 150.32016956 22.70703125 148.91796875 C21.83858078 148.70312332 20.97013031 148.48827789 20.07536316 148.266922 C18.24982284 147.81281285 16.42531305 147.35454277 14.60180664 146.89233398 C11.81381332 146.18783186 9.02160617 145.50233647 6.22851562 144.81835938 C4.45023629 144.37353181 2.67223128 143.92760583 0.89453125 143.48046875 C0.0621846 143.27721481 -0.77016205 143.07396088 -1.62773132 142.86454773 C-9.11089962 140.94087463 -9.11089962 140.94087463 -12 138 C-12 137.34 -12 136.68 -12 136 C-12.79994385 136.01047363 -13.5998877 136.02094727 -14.42407227 136.03173828 C-43.77148087 136.36544757 -43.77148087 136.36544757 -56 134 C-56.11988281 135.09570312 -56.23976562 136.19140625 -56.36328125 137.3203125 C-57.14793764 141.85495251 -58.36259264 143.25173666 -62 146 C-63.051875 146.165 -64.10375 146.33 -65.1875 146.5 C-66.115625 146.665 -67.04375 146.83 -68 147 C-69.45291273 149.46255685 -69.45291273 149.46255685 -70 152 C-76.4295082 153.33442623 -76.4295082 153.33442623 -78.8125 151.9375 C-80 150 -80 150 -80.8125 147.125 C-82.33871797 143.10863693 -84.67376453 141.63326974 -88 139 C-89.82909981 136.09173131 -90.27310276 133.85093237 -90.25 130.4375 C-90.25515625 129.67308594 -90.2603125 128.90867188 -90.265625 128.12109375 C-90 126 -90 126 -88 123 C-88.99 122.7215625 -88.99 122.7215625 -90 122.4375 C-100.28076774 117.51129879 -105.99239486 108.28023807 -109.875 97.9375 C-115.88960771 79.66030178 -110.22348949 60.88974284 -102.3125 44.0625 C-98.94268414 37.47721098 -94.60265967 31.7658773 -90 26 C-89.319375 25.12730469 -88.63875 24.25460938 -87.9375 23.35546875 C-79.27207052 12.82068251 -65.69914438 4.71880775 -53 0 C-51.95328125 -0.391875 -50.9065625 -0.78375 -49.828125 -1.1875 C-33.95055574 -6.26832216 -15.53024648 -6.13194248 0 0 Z M-78 22 C-78.69480469 22.60199219 -79.38960937 23.20398438 -80.10546875 23.82421875 C-89.44408327 32.41723531 -96.45991892 44.24412464 -101 56 C-101.39058594 56.92941406 -101.78117187 57.85882813 -102.18359375 58.81640625 C-106.31165088 69.54364122 -106.79239917 80.88390896 -102.2578125 91.5703125 C-96.60415361 102.49135544 -87.1070828 109.08663628 -76 114 C-74.01187646 114.39809031 -72.01202087 114.74923494 -70 115 C-69.93941406 113.74703125 -69.87882812 112.4940625 -69.81640625 111.203125 C-69.73197744 109.55207276 -69.64733061 107.90103165 -69.5625 106.25 C-69.52318359 105.425 -69.48386719 104.6 -69.44335938 103.75 C-69.40146484 102.95078125 -69.35957031 102.1515625 -69.31640625 101.328125 C-69.27974854 100.5949707 -69.24309082 99.86181641 -69.20532227 99.10644531 C-68.99620237 96.96103925 -68.68354496 95.0458861 -68 93 C-66.66666667 92.33333333 -65.33333333 91.66666667 -64 91 C-63.5875 90.236875 -63.175 89.47375 -62.75 88.6875 C-59.79229884 84.14531608 -55.0758107 81.6919369 -50 80 C-42.42183354 79.23630881 -37.1901268 80.8732488 -30.8125 85.125 C-27.16642513 88.30187488 -25.64680365 92.55363013 -24 97 C-23.34 97 -22.68 97 -22 97 C-21.72439759 114.36295181 -21.72439759 114.36295181 -27 121 C-22.71 121 -18.42 121 -14 121 C-12.00857156 116.16367378 -10.60785474 111.49223381 -9.5 106.375 C-8.50090172 101.81595681 -7.21371786 98.1255651 -5 94 C-4.29241674 90.7633037 -4.29241674 90.7633037 -4 88 C-3.67 89.65 -3.34 91.3 -3 93 C-2.34 92.67 -1.68 92.34 -1 92 C-1.66265312 96.89101111 -2.47862127 101.71842351 -3.4375 106.5625 C-3.68371094 107.82191406 -3.92992187 109.08132812 -4.18359375 110.37890625 C-4.92931436 113.68648043 -5.92386007 116.7898975 -7 120 C-7.33448259 123.167832 -7.33448259 123.167832 -7 126 C-6.34 126.66 -5.68 127.32 -5 128 C-4.67 127.34 -4.34 126.68 -4 126 C-4 128.31 -4 130.62 -4 133 C3.01245781 134.76704677 10.02772038 136.52241879 17.04638672 138.26464844 C19.48172637 138.87096709 21.91492319 139.48491368 24.34765625 140.1015625 C25.47042969 140.37742188 26.59320313 140.65328125 27.75 140.9375 C29.16539062 141.29134766 29.16539062 141.29134766 30.609375 141.65234375 C33.13604477 142.01978429 34.65722856 142.01836686 37 141 C38.66644774 136.00065678 38.66570135 131.08586422 37.0625 126.0625 C33.86501165 122.86501165 30.3531619 122.68874912 26 122 C24.24913168 121.6290753 22.49911517 121.25410568 20.75 120.875 C17.43182571 120.17015906 14.3935817 119.91576216 11 120 C11 119.01 11 118.02 11 117 C12.25296875 117.28875 13.5059375 117.5775 14.796875 117.875 C16.44786552 118.25022512 18.09891004 118.62521271 19.75 119 C20.575 119.19078125 21.4 119.3815625 22.25 119.578125 C23.44882812 119.84882813 23.44882812 119.84882813 24.671875 120.125 C25.4050293 120.29257813 26.13818359 120.46015625 26.89355469 120.6328125 C29.30039489 121.11448443 29.30039489 121.11448443 33 121 C32.67 119.35 32.34 117.7 32 116 C29.77228658 115.49356447 27.54275924 114.9951038 25.3125 114.5 C24.07113281 114.2215625 22.82976562 113.943125 21.55078125 113.65625 C18.57601782 113.10645874 16.00631398 112.86204295 13 113 C13 112.01 13 111.02 13 110 C14.87945312 110.45052734 14.87945312 110.45052734 16.796875 110.91015625 C18.44780557 111.29474803 20.09885349 111.67883635 21.75 112.0625 C22.9875 112.36124023 22.9875 112.36124023 24.25 112.66601562 C25.04921875 112.84970703 25.8484375 113.03339844 26.671875 113.22265625 C27.4050293 113.39547119 28.13818359 113.56828613 28.89355469 113.74633789 C31.26048444 114.03136803 32.77386316 113.84202712 35 113 C35.598125 112.21625 36.19625 111.4325 36.8125 110.625 C39 108 39 108 42.625 106.75 C46.05880187 105.41088743 46.05880187 105.41088743 46.89453125 103.02734375 C47.90012413 98.69388953 48.22820544 94.45000606 48 90 C45.03 89.505 45.03 89.505 42 89 C42 86.36 42 83.72 42 81 C40.576875 80.690625 40.576875 80.690625 39.125 80.375 C36 79 36 79 34.625 75.875 C34.41875 74.92625 34.2125 73.9775 34 73 C31.09926819 72.32198966 31.09926819 72.32198966 28 72 C27.34 72.66 26.68 73.32 26 74 C26 74.99 26 75.98 26 77 C25.34 75.68 24.68 74.36 24 73 C26.60047812 70.39952188 27.81430032 70.00651578 31.5625 69.875 C33.2640625 70.431875 33.2640625 70.431875 35 71 C35.433125 72.134375 35.86625 73.26875 36.3125 74.4375 C37.55863189 78.11984375 37.55863189 78.11984375 40.22265625 78.87109375 C42.81383903 79.36338032 45.37962876 79.70530779 48 80 C49.66945178 80.31909189 51.33710205 80.64834775 53 81 C53.57719206 63.39564206 46.93423273 49.20774275 37 35 C36.46890625 34.23300781 35.9378125 33.46601562 35.390625 32.67578125 C28.5702358 23.3708217 19.57245953 14.85228553 9 10 C8.01 10 7.02 10 6 10 C6 9.34 6 8.68 6 8 C3.43848317 7.18428782 0.87587372 6.37233869 -1.6875 5.5625 C-2.40873047 5.33240234 -3.12996094 5.10230469 -3.87304688 4.86523438 C-4.93168945 4.53168945 -4.93168945 4.53168945 -6.01171875 4.19140625 C-6.65584717 3.98717041 -7.29997559 3.78293457 -7.96362305 3.57250977 C-32.92869344 -3.44620383 -59.32273285 4.99087793 -78 22 Z " fill="#726259" transform="translate(177,51)"/>
<path d="M0 0 C2.875 0.3125 2.875 0.3125 6 1 C6.66 1.99 7.32 2.98 8 4 C9.87763938 4.75968759 9.87763938 4.75968759 12.0625 5.1328125 C13.25746094 5.38224609 13.25746094 5.38224609 14.4765625 5.63671875 C15.72566406 5.87841797 15.72566406 5.87841797 17 6.125 C18.64626024 6.45883915 20.29211554 6.79468333 21.9375 7.1328125 C23.03384766 7.34768311 23.03384766 7.34768311 24.15234375 7.56689453 C26 8 26 8 28 9 C30.89335975 9.12579825 33.43309978 9.14172505 36.25 8.4375 C38 8 38 8 40 9 C39.01614971 20.41784158 39.01614971 20.41784158 37 25 C33.625 26.625 33.625 26.625 30 28 C27.58855519 30.53099205 27.58855519 30.53099205 26 33 C18.94090922 31.87723429 11.96156852 30.62436599 5 29 C5 29.99 5 30.98 5 32 C5.61746094 32.04898438 6.23492187 32.09796875 6.87109375 32.1484375 C12.73478159 32.66608422 18.27872775 33.61582123 24 35 C24.495 37.475 24.495 37.475 25 40 C17.5403037 39.25403037 10.31048782 37.63253871 3 36 C3 36.99 3 37.98 3 39 C3.80824219 39.04898438 4.61648437 39.09796875 5.44921875 39.1484375 C6.51785156 39.22320312 7.58648437 39.29796875 8.6875 39.375 C9.74324219 39.44460937 10.79898438 39.51421875 11.88671875 39.5859375 C14.92424586 39.98992479 17.19450595 40.82047068 20 42 C21.19625 42.103125 22.3925 42.20625 23.625 42.3125 C27 43 27 43 28.9375 45 C30.56682049 49.60043433 31.13158861 54.6269993 28.98120117 59.13647461 C28.65740479 59.75143799 28.3336084 60.36640137 28 61 C19.76308945 59.59352046 11.63602453 57.83744664 3.5 55.9375 C1.75203125 55.5343457 1.75203125 55.5343457 -0.03125 55.12304688 C-8.58767857 53.13744048 -8.58767857 53.13744048 -12 52 C-8.79696395 34.46759214 -4.41859243 17.25630783 0 0 Z " fill="#EDEAE4" transform="translate(185,132)"/>
<path d="M0 0 C5.24158891 2.76914131 8.63963802 5.41180523 11.3125 10.75 C12.11416143 16.52051787 12.15691712 21.93125543 9.6875 27.25 C4.45920547 32.75346793 0.44805123 35.85694854 -7.375 36.1875 C-12.896589 36.14070687 -16.02953028 35.12388438 -20.12890625 31.43359375 C-25.00996217 26.1610747 -25.33910006 20.92685238 -25.1640625 13.94921875 C-24.30470755 8.18027038 -21.40823772 4.97605813 -17.01171875 1.37890625 C-11.29081949 -2.4218751 -6.22187081 -2.10910875 0 0 Z " fill="#8CA69A" transform="translate(138.6875,134.25)"/>
<path d="M0 0 C-1.0915076 10.69677451 -3.48866082 21.19932229 -6.0625 31.625 C-6.22468018 32.28757813 -6.38686035 32.95015625 -6.55395508 33.6328125 C-7.45982539 37.22136418 -8.5933557 40.58151449 -10 44 C-15.90820002 44.02472528 -21.8163699 44.04287204 -27.72460938 44.05493164 C-29.73438034 44.05995931 -31.74414764 44.06678233 -33.75390625 44.07543945 C-36.64323835 44.08757351 -39.53252207 44.09324399 -42.421875 44.09765625 C-43.31992859 44.10281754 -44.21798218 44.10797882 -45.14324951 44.11329651 C-46.4041037 44.11340981 -46.4041037 44.11340981 -47.69042969 44.11352539 C-48.42767273 44.115746 -49.16491577 44.11796661 -49.92449951 44.12025452 C-52.06152957 43.99643498 -53.94523924 43.58521369 -56 43 C-56.0928125 44.5778125 -56.0928125 44.5778125 -56.1875 46.1875 C-57.15692072 50.7363203 -58.31995839 52.21952412 -62 55 C-63.5778125 55.2475 -63.5778125 55.2475 -65.1875 55.5 C-66.5796875 55.7475 -66.5796875 55.7475 -68 56 C-69.45291273 58.46255685 -69.45291273 58.46255685 -70 61 C-73.3125 61.6875 -73.3125 61.6875 -77 62 C-78.71875 60.8125 -78.71875 60.8125 -80 59 C-80.29296875 56.73828125 -80.29296875 56.73828125 -80.1875 54.3125 C-80.16042969 53.50425781 -80.13335937 52.69601563 -80.10546875 51.86328125 C-80.07066406 51.24839844 -80.03585938 50.63351563 -80 50 C-79.38125 50.165 -78.7625 50.33 -78.125 50.5 C-72.35732746 51.42282761 -66.12029885 52.25007834 -61 49 C-59.60064987 46.20129973 -59.74734595 44.09501208 -60 41 C-62.21350684 37.6146366 -66.53644744 35.8951514 -70 34 C-70 33.34 -70 32.68 -70 32 C-69.01 32 -68.02 32 -67 32 C-67 31.34 -67 30.68 -67 30 C-67.66 30 -68.32 30 -69 30 C-69.33 29.01 -69.66 28.02 -70 27 C-68.68 26.67 -67.36 26.34 -66 26 C-66.33 22.7 -66.66 19.4 -67 16 C-66.67 16.99 -66.34 17.98 -66 19 C-65.34 19 -64.68 19 -64 19 C-64 19.99 -64 20.98 -64 22 C-63.34 22 -62.68 22 -62 22 C-59.8480563 25.22791555 -59.79913557 26.28400809 -60 30 C-55.85906302 30.20970559 -55.85906302 30.20970559 -52 29 C-48.65844662 28.72300281 -45.31714126 28.55299296 -41.96875 28.37890625 C-38.88509744 28.29302673 -38.88509744 28.29302673 -37 26 C-36.236875 25.71125 -35.47375 25.4225 -34.6875 25.125 C-31.64354102 23.85078461 -29.49454118 22.13817815 -27 20 C-26.75 22.75 -26.75 22.75 -27 26 C-28.8125 28.0625 -28.8125 28.0625 -31 30 C-31.515625 30.86625 -32.03125 31.7325 -32.5625 32.625 C-34 35 -34 35 -37 37 C-26.11 37.495 -26.11 37.495 -15 38 C-15 36.02 -15 34.04 -15 32 C-14.0409375 31.7525 -14.0409375 31.7525 -13.0625 31.5 C-10.59549368 30.06989938 -10.59549368 30.06989938 -10.375 26.5 C-10.32214844 25.79875 -10.26929688 25.0975 -10.21484375 24.375 C-9.83634241 20.19083978 -8.86666012 16.10611786 -8 12 C-7.34 12 -6.68 12 -6 12 C-5.83564453 11.07767578 -5.83564453 11.07767578 -5.66796875 10.13671875 C-5.43013672 8.92435547 -5.43013672 8.92435547 -5.1875 7.6875 C-4.96126953 6.48673828 -4.96126953 6.48673828 -4.73046875 5.26171875 C-4.01562014 3.04836396 -2.73463447 0 0 0 Z " fill="#655850" transform="translate(177,142)"/>
<path d="M0 0 C0.66 0.33 1.32 0.66 2 1 C4.0374763 1.22858114 6.08040303 1.41024278 8.125 1.5625 C9.76855469 1.68818359 9.76855469 1.68818359 11.4453125 1.81640625 C12.28835937 1.87699219 13.13140625 1.93757813 14 2 C14.495 3.485 14.495 3.485 15 5 C15.33 3.68 15.66 2.36 16 1 C18.3125 0.375 18.3125 0.375 21 0 C24 2 24 2 24.6875 4.625 C24.8421875 5.800625 24.8421875 5.800625 25 7 C26.98 7.66 28.96 8.32 31 9 C31.19412181 10.47831221 31.38012131 11.95769316 31.5625 13.4375 C31.71912109 14.67306641 31.71912109 14.67306641 31.87890625 15.93359375 C31.93884766 16.95646484 31.93884766 16.95646484 32 18 C31 19 31 19 28.40625 19.1796875 C24.54830601 18.97617211 21.22015822 18.16089772 17.5 17.125 C16.2315625 16.77695313 14.963125 16.42890625 13.65625 16.0703125 C11.84640625 15.54050781 11.84640625 15.54050781 10 15 C8.31390625 14.53207031 8.31390625 14.53207031 6.59375 14.0546875 C5.7378125 13.70664063 4.881875 13.35859375 4 13 C3.67 12.01 3.34 11.02 3 10 C0.03 9.505 0.03 9.505 -3 9 C-3.132854 10.0120752 -3.26570801 11.02415039 -3.40258789 12.06689453 C-3.96193546 15.74939939 -4.70086842 19.3065071 -5.55859375 22.9296875 C-5.78241478 23.88163498 -5.78241478 23.88163498 -6.01075745 24.85281372 C-6.48347203 26.86089848 -6.96031662 28.86797298 -7.4375 30.875 C-8.06219048 33.51799524 -8.68531751 36.16135845 -9.30859375 38.8046875 C-9.6010498 40.0431543 -9.89350586 41.28162109 -10.19482422 42.55761719 C-11.16330958 46.69820043 -12.09156961 50.84587108 -13 55 C-13.66 54.67 -14.32 54.34 -15 54 C-15.66 54.66 -16.32 55.32 -17 56 C-19.88492559 50.23014881 -16.44929549 41.50650793 -14.765625 35.6796875 C-14.04331962 33.15161866 -13.40057514 30.62482739 -12.8125 28.0625 C-12.65394531 27.37285156 -12.49539062 26.68320313 -12.33203125 25.97265625 C-11.88934529 23.67598154 -11.88934529 23.67598154 -12 20 C-12.66 20.33 -13.32 20.66 -14 21 C-14.64743509 15.685637 -15.11341271 10.98586297 -12.4296875 6.19921875 C-8.479399 1.49041478 -6.3914491 -0.66541114 0 0 Z " fill="#637866" transform="translate(188,123)"/>
<path d="M0 0 C6.79217868 3.7734326 10.9331558 7.4058295 13.375 14.875 C13.375 15.535 13.375 16.195 13.375 16.875 C14.035 16.875 14.695 16.875 15.375 16.875 C17.49642857 31.725 17.49642857 31.725 13.3125 37.9375 C12.673125 38.576875 12.03375 39.21625 11.375 39.875 C15.335 39.875 19.295 39.875 23.375 39.875 C23.61734375 38.6684375 23.8596875 37.461875 24.109375 36.21875 C24.44733649 34.60404512 24.78591101 32.98946848 25.125 31.375 C25.36089844 30.18777344 25.36089844 30.18777344 25.6015625 28.9765625 C26.64208903 24.09409186 28.12971043 20.00712625 30.48339844 15.60742188 C31.5289126 13.5759409 32.14690108 11.6061283 32.625 9.375 C32.99625 7.6425 32.99625 7.6425 33.375 5.875 C33.705 5.875 34.035 5.875 34.375 5.875 C34.72048714 12.20893082 33.66842747 16.97761508 31.375 22.875 C30.715 22.875 30.055 22.875 29.375 22.875 C29.436875 23.98875 29.49875 25.1025 29.5625 26.25 C29.5625 31.33963094 28.47226273 36.23167757 26.375 40.875 C25.385 41.535 24.395 42.195 23.375 42.875 C23.045 44.855 22.715 46.835 22.375 48.875 C14.785 48.875 7.195 48.875 -0.625 48.875 C1.025 47.225 2.675 45.575 4.375 43.875 C5.40857147 42.22894174 6.41560332 40.56536558 7.375 38.875 C8.035 38.215 8.695 37.555 9.375 36.875 C9.54187448 34.29145782 9.54187448 34.29145782 9.375 31.875 C7.725 33.525 6.075 35.175 4.375 36.875 C3.385 36.545 2.395 36.215 1.375 35.875 C2.87239583 34.703125 4.36979167 33.53125 5.8671875 32.359375 C9.44451194 28.83765664 9.69297837 25.39245587 9.75 20.5 C9.6475764 15.11974871 9.32305503 11.82305503 5.375 7.875 C-0.18620913 3.98215361 -5.79025394 1.80288297 -12.625 2.875 C-18.04001434 5.14676008 -22.28682971 8.41926932 -24.625 13.875 C-25.61866069 21.12399131 -25.41725066 27.16753713 -21.20703125 33.2890625 C-18.03190254 36.47203104 -15.59987546 37.79456473 -11.07421875 38.16796875 C-9.21216797 38.11576172 -9.21216797 38.11576172 -7.3125 38.0625 C-6.05824219 38.03542969 -4.80398437 38.00835937 -3.51171875 37.98046875 C-2.55910156 37.94566406 -1.60648438 37.91085938 -0.625 37.875 C-1.12 38.865 -1.12 38.865 -1.625 39.875 C-4.35546875 40.25390625 -4.35546875 40.25390625 -7.8125 40.4375 C-11.24901966 40.6299451 -14.53547301 40.85900169 -17.92578125 41.46484375 C-20.625 41.875 -20.625 41.875 -22.625 40.875 C-23.2578125 39.02734375 -23.2578125 39.02734375 -23.75 36.8125 C-24.00136719 35.71228516 -24.00136719 35.71228516 -24.2578125 34.58984375 C-24.37898438 34.02394531 -24.50015625 33.45804688 -24.625 32.875 C-25.285 32.875 -25.945 32.875 -26.625 32.875 C-26.625 31.885 -26.625 30.895 -26.625 29.875 C-27.285 29.875 -27.945 29.875 -28.625 29.875 C-28.955 28.885 -29.285 27.895 -29.625 26.875 C-29.955 29.845 -30.285 32.815 -30.625 35.875 C-31.945 35.545 -33.265 35.215 -34.625 34.875 C-33.965 34.875 -33.305 34.875 -32.625 34.875 C-32.64820312 33.62203125 -32.67140625 32.3690625 -32.6953125 31.078125 C-32.71407427 29.4270893 -32.73227403 27.77604715 -32.75 26.125 C-32.76675781 25.3 -32.78351563 24.475 -32.80078125 23.625 C-32.80722656 22.82578125 -32.81367187 22.0265625 -32.8203125 21.203125 C-32.83078613 20.4699707 -32.84125977 19.73681641 -32.85205078 18.98144531 C-32.30777133 13.93193662 -29.16774384 11.25296506 -25.625 7.875 C-24.861875 7.029375 -24.09875 6.18375 -23.3125 5.3125 C-16.24406932 -1.09840224 -9.14626035 -2.83849459 0 0 Z " fill="#657176" transform="translate(139.625,131.125)"/>
<path d="M0 0 C0 0.66 0 1.32 0 2 C0.72832031 2.103125 1.45664063 2.20625 2.20703125 2.3125 C11.54548378 4.61119601 22.92041019 14.98045467 28 23 C28 23.99 28 24.98 28 26 C24.77086796 24.60399968 22.93655923 23.00034555 20.625 20.375 C7.84832438 7.2895943 -12.82223727 0.31843495 -30.6875 -0.4375 C-51.4605527 0.20727761 -72.64844783 7.34221099 -87.36328125 22.421875 C-88.53181041 23.78636868 -89.67247787 25.17596341 -90.765625 26.6015625 C-91.17296875 27.06304687 -91.5803125 27.52453125 -92 28 C-92.66 28 -93.32 28 -94 28 C-92.31391022 18.57038677 -80.5958212 10.22094772 -73.21875 5.05078125 C-51.10773878 -8.64972436 -23.8290908 -9.81197856 0 0 Z " fill="#C1B0A3" transform="translate(183,59)"/>
<path d="M0 0 C0.99 0.66 1.98 1.32 3 2 C3.66 1.67 4.32 1.34 5 1 C5.125 6.75 5.125 6.75 4 9 C4.66902344 9.09796875 5.33804688 9.1959375 6.02734375 9.296875 C15.14171622 10.71602561 24.04609751 12.81456882 33 15 C32.34 15.33 31.68 15.66 31 16 C31 16.66 31 17.32 31 18 C37.93 18.495 37.93 18.495 45 19 C45.99 16.03 46.98 13.06 48 10 C48.99 10 49.98 10 51 10 C50.71715982 11.77226453 50.42339502 13.542788 50.125 15.3125 C49.96257812 16.29863281 49.80015625 17.28476563 49.6328125 18.30078125 C49 21 49 21 47 24 C43.875 24.6875 43.875 24.6875 41 25 C41.99 25.66 42.98 26.32 44 27 C39.36370085 26.39122642 34.86911853 25.57312018 30.32421875 24.4765625 C29.08349609 24.1775 27.84277344 23.8784375 26.56445312 23.5703125 C25.28505859 23.25835937 24.00566406 22.94640625 22.6875 22.625 C21.41970703 22.32078125 20.15191406 22.0165625 18.84570312 21.703125 C15.22415029 20.82540013 11.61104939 19.91988792 8 19 C6.98502441 18.75088867 5.97004883 18.50177734 4.92431641 18.24511719 C4.0276123 18.00696289 3.1309082 17.76880859 2.20703125 17.5234375 C1.43464111 17.32411621 0.66225098 17.12479492 -0.13354492 16.91943359 C-2 16 -2 16 -4 12 C-13.57 12 -23.14 12 -33 12 C-33 11.67 -33 11.34 -33 11 C-22.77 11 -12.54 11 -2 11 C-1.34 7.37 -0.68 3.74 0 0 Z " fill="#6C8370" transform="translate(169,175)"/>
<path d="M0 0 C3 1 3 1 4 3 C4.97045759 10.18629986 4.2198459 15.5258278 -0.21875 21.3671875 C-2 23 -2 23 -5.5625 23.8125 C-10.48890574 22.64807682 -12.78406261 20.59329728 -15.8125 16.625 C-17.27864306 13.38405218 -17.58656727 11.51940359 -17 8 C-15.1875 5.125 -15.1875 5.125 -12 3 C-8.2947699 2.58888599 -4.71118727 2.70752465 -1 3 C-0.67 2.01 -0.34 1.02 0 0 Z " fill="#9D8B7D" transform="translate(231,158)"/>
<path d="M0 0 C0.53625 0.33 1.0725 0.66 1.625 1 C1.625 1.66 1.625 2.32 1.625 3 C0.635 3 -0.355 3 -1.375 3 C1.4069368 6.27286682 4.90454067 7.96427697 8.625 10 C8.625 12.31 8.625 14.62 8.625 17 C2.99448227 19.19727521 -1.63660712 19.95005467 -7.4375 17.9375 C-11.16645685 15.47797527 -14.10647721 12.88536086 -16.375 9 C-16.5 5.75 -16.5 5.75 -15.375 3 C-11.09227924 -1.13996341 -5.55077001 -2.33716632 0 0 Z " fill="#99877A" transform="translate(108.375,171)"/>
<path d="M0 0 C5.24158891 2.76914131 8.63963802 5.41180523 11.3125 10.75 C12.11416143 16.52051787 12.15691712 21.93125543 9.6875 27.25 C4.45920547 32.75346793 0.44805123 35.85694854 -7.375 36.1875 C-12.896589 36.14070687 -16.02953028 35.12388438 -20.12890625 31.43359375 C-25.00996217 26.1610747 -25.33910006 20.92685238 -25.1640625 13.94921875 C-24.30470755 8.18027038 -21.40823772 4.97605813 -17.01171875 1.37890625 C-11.29081949 -2.4218751 -6.22187081 -2.10910875 0 0 Z M-18.6875 6.75 C-22.49471841 12.2170156 -22.76074095 17.25903876 -21.6875 23.75 C-19.37692434 28.08700285 -16.23009201 30.89517982 -11.6875 32.75 C-7.15150167 33.47106443 -2.98864155 33.25274563 1.125 31.125 C5.24300491 28.05668262 7.86420365 25.5876697 8.69140625 20.3515625 C8.9559461 14.66822255 8.24766831 11.09939655 4.3125 6.75 C0.47338005 3.10283604 -2.60702893 2.43931182 -7.75 2.25 C-12.62777274 2.42506858 -15.42602582 2.85727276 -18.6875 6.75 Z " fill="#9CAEBA" transform="translate(138.6875,134.25)"/>
<path d="M0 0 C3.4375 2 3.4375 2 6 5 C6.99442198 9.04289593 6.39803266 12.12811893 4.6875 15.875 C2.22751212 18.97276252 0.55650798 19.92786008 -3.375 20.4375 C-7.90430237 19.89086006 -9.1800772 18.48343405 -12 15 C-13.55024464 11.89951072 -13.28992015 9.42105782 -13 6 C-9.33404658 0.37887142 -6.67491925 -0.66749193 0 0 Z " fill="#7A685E" transform="translate(188,97)"/>
<path d="M0 0 C0.33 0 0.66 0 1 0 C1.34548714 6.33393082 0.29342747 11.10261508 -2 17 C-2.66 17 -3.32 17 -4 17 C-3.938125 18.11375 -3.87625 19.2275 -3.8125 20.375 C-3.8125 25.46463094 -4.90273727 30.35667757 -7 35 C-7.99 35.66 -8.98 36.32 -10 37 C-10.33 38.98 -10.66 40.96 -11 43 C-18.59 43 -26.18 43 -34 43 C-31.525 40.525 -31.525 40.525 -29 38 C-28.484375 37.113125 -27.96875 36.22625 -27.4375 35.3125 C-26 33 -26 33 -23.96191406 32.14111328 C-21.80062375 31.18046058 -21.80062375 31.18046058 -21.36230469 28.93701172 C-21.29946289 28.10959473 -21.23662109 27.28217773 -21.171875 26.4296875 C-21.05585938 25.08583984 -21.05585938 25.08583984 -20.9375 23.71484375 C-20.875625 22.77769531 -20.81375 21.84054688 -20.75 20.875 C-20.67265625 19.93011719 -20.5953125 18.98523438 -20.515625 18.01171875 C-20.32682071 15.67526563 -20.15571258 13.33885363 -20 11 C-19.34 11 -18.68 11 -18 11 C-15.87857143 25.85 -15.87857143 25.85 -20.0625 32.0625 C-20.701875 32.701875 -21.34125 33.34125 -22 34 C-18.04 34 -14.08 34 -10 34 C-9.75765625 32.7934375 -9.5153125 31.586875 -9.265625 30.34375 C-8.92766351 28.72904512 -8.58908899 27.11446848 -8.25 25.5 C-8.01410156 24.31277344 -8.01410156 24.31277344 -7.7734375 23.1015625 C-6.73291097 18.21909186 -5.24528957 14.13212625 -2.89160156 9.73242188 C-1.8460874 7.7009409 -1.22809892 5.7311283 -0.75 3.5 C-0.5025 2.345 -0.255 1.19 0 0 Z " fill="#8A796B" transform="translate(173,137)"/>
<path d="M0 0 C3.4375 2 3.4375 2 6 5 C6.99442198 9.04289593 6.39803266 12.12811893 4.6875 15.875 C3 18 3 18 0 20 C-2.33199388 20.07905064 -4.66832622 20.08798769 -7 20 C-7 19.34 -7 18.68 -7 18 C-6.34 18 -5.68 18 -5 18 C-5.33 16.02 -5.66 14.04 -6 12 C-8.31 12.33 -10.62 12.66 -13 13 C-13.32470459 8.86001651 -13.4304413 6.66000999 -11.125 3.125 C-7.54896931 -0.45103069 -5.00281714 -0.50028171 0 0 Z " fill="#716056" transform="translate(121,97)"/>
<path d="M0 0 C1.48011371 0.30798326 2.95907325 0.621518 4.4375 0.9375 C5.26121094 1.11152344 6.08492187 1.28554687 6.93359375 1.46484375 C9 2 9 2 10 3 C9.48835292 9.44675319 8.35842104 15.68268273 7 22 C8.32 21.67 9.64 21.34 11 21 C10.938125 19.88625 10.87625 18.7725 10.8125 17.625 C10.874375 16.42875 10.93625 15.2325 11 14 C11.99 13.34 12.98 12.68 14 12 C13.7525 13.051875 13.505 14.10375 13.25 15.1875 C12.55210425 19.01128034 12.55210425 19.01128034 14.9375 21.25 C17.76758685 25.02344913 17.4398194 27.9734666 17.43359375 32.57421875 C17.21896484 33.77498047 17.21896484 33.77498047 17 35 C16.01 35.66 15.02 36.32 14 37 C13.96261719 36.24074219 13.92523438 35.48148438 13.88671875 34.69921875 C13.82097656 33.70535156 13.75523437 32.71148437 13.6875 31.6875 C13.62949219 30.70136719 13.57148438 29.71523437 13.51171875 28.69921875 C12.95377187 25.75615543 12.31459868 24.81817001 10 23 C9.67 24.32 9.34 25.64 9 27 C5.04 27 1.08 27 -3 27 C-3 26.34 -3 25.68 -3 25 C-2.34 24.67 -1.68 24.34 -1 24 C-1.66 23.34 -2.32 22.68 -3 22 C-1.68 21.67 -0.36 21.34 1 21 C1.99 16.05 2.98 11.1 4 6 C2.35 5.67 0.7 5.34 -1 5 C-0.67 3.35 -0.34 1.7 0 0 Z " fill="#70635B" transform="translate(221,135)"/>
<path d="M0 0 C0.33 0 0.66 0 1 0 C1.08636719 0.82242188 1.17273438 1.64484375 1.26171875 2.4921875 C2.54420904 12.68151402 4.96107245 21.13750087 13 28 C13.86625 28.804375 14.7325 29.60875 15.625 30.4375 C19.24616969 33.42520137 23.36893356 35.49630127 27.51171875 37.66796875 C30 39 30 39 33 41 C22.94192186 44.9561774 22.94192186 44.9561774 18 43 C8.41988525 36.30086179 2.97537724 27.5087871 0.45703125 16.18359375 C-0.31780894 10.7862027 -0.236762 5.43675711 0 0 Z " fill="#877669" transform="translate(71,125)"/>
<path d="M0 0 C1.60407328 -0.02708567 3.2082785 -0.04643483 4.8125 -0.0625 C5.70582031 -0.07410156 6.59914062 -0.08570312 7.51953125 -0.09765625 C10 0 10 0 13 1 C13 1.66 13 2.32 13 3 C14.0828125 3.3403125 14.0828125 3.3403125 15.1875 3.6875 C18.67251481 5.31384025 20.6463527 6.95410349 23 10 C22.8125 13.3125 22.8125 13.3125 22 16 C14.16890749 15.64404125 6.55626477 12.0307084 0.62109375 6.97265625 C-1 5 -1 5 -0.75 2.25 C-0.5025 1.5075 -0.255 0.765 0 0 Z " fill="#CBBDB0" transform="translate(170,66)"/>
<path d="M0 0 C0.99 0 1.98 0 3 0 C2.71715982 1.77226453 2.42339502 3.542788 2.125 5.3125 C1.96257812 6.29863281 1.80015625 7.28476563 1.6328125 8.30078125 C1 11 1 11 -1 14 C-6.56363501 15.22304045 -12.0269258 13.60871351 -17.29296875 11.8671875 C-22.12470015 10.31936013 -27.07109493 9.19411618 -32 8 C-32.33 6.68 -32.66 5.36 -33 4 C-30.98177083 4.03255208 -28.96354167 4.06510417 -26.9453125 4.09765625 C-24.91814596 4.12649242 -24.91814596 4.12649242 -23 3 C-21.0546875 3.33984375 -21.0546875 3.33984375 -18.875 3.9375 C-17.78832031 4.22947266 -17.78832031 4.22947266 -16.6796875 4.52734375 C-16.12539062 4.68332031 -15.57109375 4.83929688 -15 5 C-15.99 5.495 -15.99 5.495 -17 6 C-17 6.66 -17 7.32 -17 8 C-10.07 8.495 -10.07 8.495 -3 9 C-2.01 6.03 -1.02 3.06 0 0 Z M-16 14 C-14.56163249 14.11458693 -13.12429034 14.24209116 -11.6875 14.375 C-10.48673828 14.47941406 -10.48673828 14.47941406 -9.26171875 14.5859375 C-7 15 -7 15 -4 17 C-8.02992782 16.44687265 -12.02022924 15.8441938 -16 15 C-16 14.67 -16 14.34 -16 14 Z " fill="#668872" transform="translate(217,185)"/>
<path d="M0 0 C3.71640139 -0.27028374 6.457201 -0.180933 10 1 C10 1.99 10 2.98 10 4 C7.36 4 4.72 4 2 4 C-0.03016656 11.99261111 -2.02921478 19.99254 -4 28 C-4.19625977 28.79132324 -4.39251953 29.58264648 -4.59472656 30.39794922 C-5.05687872 32.28262174 -5.49831077 34.17234447 -5.9375 36.0625 C-6.29134766 37.56490234 -6.29134766 37.56490234 -6.65234375 39.09765625 C-7.14692867 42.14491702 -7.14692867 42.14491702 -6.44140625 45.74609375 C-6.29574219 46.81988281 -6.15007812 47.89367187 -6 49 C-6.66 49.66 -7.32 50.32 -8 51 C-8.33 50.67 -8.66 50.34 -9 50 C-9.66 50.66 -10.32 51.32 -11 52 C-13.44994739 47.10010523 -11.10057327 40.01544127 -9.64453125 34.99609375 C-7.51355597 27.39014134 -5.85572961 19.68176103 -4.16210938 11.96875 C-3.91138672 10.855 -3.66066406 9.74125 -3.40234375 8.59375 C-3.18054443 7.59021484 -2.95874512 6.58667969 -2.73022461 5.55273438 C-2 3 -2 3 0 0 Z " fill="#83A189" transform="translate(182,127)"/>
<path d="M0 0 C5.77297901 0.07401255 8.39099306 1.49147992 12.5625 5.4375 C14.88265491 9.30442486 14.55214142 11.79341411 14.25 16.25 C12.6 16.91 10.95 17.57 9.25 18.25 C8.981875 17.321875 8.71375 16.39375 8.4375 15.4375 C7.28501213 12.34397992 6.74183973 11.24575264 4.25 9.25 C2.08519674 8.537406 2.08519674 8.537406 -0.25 8.1875 C-3.53172852 7.61319751 -4.87102671 7.16931552 -7.75 5.25 C-5.56528199 0.73491612 -5.09287937 0.09040614 0 0 Z " fill="#A4C5B9" transform="translate(130.75,138.75)"/>
<path d="M0 0 C4.87986993 2.2656539 7.66705454 5.15465173 10 10 C10.90665663 15.12642303 10.7754311 19.50706803 7.875 23.9375 C4.7770773 27.60654811 1.66570946 29.61644468 -3.171875 30.3125 C-8.61774059 30.60489547 -11.75998449 29.64838544 -16 26 C-16.78375 25.34 -17.5675 24.68 -18.375 24 C-20.9878759 19.17622912 -20.72605111 14.35825722 -20 9 C-15.51493504 -0.13031081 -9.52542681 -1.13641151 0 0 Z M-16 6 C-18.69495237 10.49158729 -18.66006916 14.89653843 -18 20 C-15.93103905 24.1379219 -14.24890079 26.27242495 -10 28 C-5.37483466 28.72320767 -1.85598225 28.4121396 2.375 26.375 C6.52991937 22.61578724 7.77404031 19.58171786 8.5625 14.0625 C8.41324495 9.75068755 6.45355725 7.43484354 3.60546875 4.34765625 C0.05903022 1.3707188 -4.15608754 1.66996008 -8.5546875 1.71484375 C-12.04609853 2.12198913 -13.69278748 3.40438591 -16 6 Z " fill="#718A8C" transform="translate(137,137)"/>
<path d="M0 0 C4.51882964 2.38730623 8.67203059 4.67945818 10.3125 9.75 C10.4375 13 10.4375 13 10.3125 15.75 C8.23189562 13.87745606 6.94090845 12.15545353 5.4375 9.75 C3.18025577 6.56330226 1.77435722 5.44640867 -1.6875 3.75 C-7.20911058 2.86889193 -12.07928375 2.63409485 -16.75 5.875 C-20.19280405 10.98367697 -22.15113674 15.84091052 -23.6875 21.75 C-24.0175 21.75 -24.3475 21.75 -24.6875 21.75 C-25.25934963 15.9891445 -25.59653832 11.18370364 -22.125 6.3125 C-15.7964411 -0.90531776 -9.09904204 -3.08442103 0 0 Z " fill="#C7D6DD" transform="translate(138.6875,134.25)"/>
<path d="M0 0 C1.32 0 2.64 0 4 0 C4 0.66 4 1.32 4 2 C8.76140739 4.53941727 13.73784856 4.72523241 19 4 C22.3832553 2.1353694 22.3832553 2.1353694 25 0 C25.99 0 26.98 0 28 0 C28.5 2.1875 28.5 2.1875 28 5 C24.8888505 8.3956499 21.34994556 9.79038112 16.85546875 10.48828125 C9.55498865 10.78573969 4.61921627 9.75341558 -1 5 C-0.67 3.35 -0.34 1.7 0 0 Z " fill="#6B5950" transform="translate(137,120)"/>
<path d="M0 0 C2.00720923 0.28674418 4.0085944 0.61866701 6 1 C6.3403125 2.423125 6.3403125 2.423125 6.6875 3.875 C7.69083714 7.19323388 7.69083714 7.19323388 10.625 8.375 C11.40875 8.58125 12.1925 8.7875 13 9 C13 10.32 13 11.64 13 13 C10.10304831 12.71722382 7.2077705 12.42412587 4.3125 12.125 C3.08756836 12.00705078 3.08756836 12.00705078 1.83789062 11.88671875 C-2.42628372 11.43785829 -6.08937454 10.89557813 -10 9 C-10 7.68 -10 6.36 -10 5 C-7.36 5 -4.72 5 -2 5 C-1.855625 4.360625 -1.71125 3.72125 -1.5625 3.0625 C-1 1 -1 1 0 0 Z " fill="#B0BAC1" transform="translate(205,123)"/>
<path d="M0 0 C0.33 1.32 0.66 2.64 1 4 C5.74740326 4.99589111 10.52752261 5.77318645 15.3125 6.5625 C16.56643555 6.77036133 16.56643555 6.77036133 17.84570312 6.98242188 C19.89701315 7.32235325 21.94849007 7.66127718 24 8 C24.33 6.68 24.66 5.36 25 4 C25.19412181 5.47831221 25.38012131 6.95769316 25.5625 8.4375 C25.66691406 9.26121094 25.77132812 10.08492187 25.87890625 10.93359375 C25.91886719 11.61550781 25.95882812 12.29742187 26 13 C25 14 25 14 22.40625 14.1796875 C18.54830601 13.97617211 15.22015822 13.16089772 11.5 12.125 C10.2315625 11.77695313 8.963125 11.42890625 7.65625 11.0703125 C5.84640625 10.54050781 5.84640625 10.54050781 4 10 C2.31390625 9.53207031 2.31390625 9.53207031 0.59375 9.0546875 C-0.69015625 8.53261719 -0.69015625 8.53261719 -2 8 C-2.33 7.01 -2.66 6.02 -3 5 C-3.99 4.67 -4.98 4.34 -6 4 C-4.35 4 -2.7 4 -1 4 C-0.67 2.68 -0.34 1.36 0 0 Z " fill="#77828A" transform="translate(194,128)"/>
<path d="M0 0 C0.53625 0.721875 1.0725 1.44375 1.625 2.1875 C4.88798048 6.05155583 8.10795646 9.36931882 13 11 C17.47878512 11.16901076 21.60355264 10.85784339 26 10 C26 8.35 26 6.7 26 5 C26.33 5 26.66 5 27 5 C27.2253459 8.30507324 27.34500438 10.39213514 25.6875 13.3125 C22.89097573 16.10902427 20.02319334 16.17969205 16.25 16.25 C11.3348917 16.17835119 8.2304958 15.53829748 4 13 C0.94188488 9.54981884 0.04832373 7.7490178 -0.25 3.125 C-0.1675 2.09375 -0.085 1.0625 0 0 Z " fill="#827164" transform="translate(91,178)"/>
<path d="M0 0 C7.23589973 0.60299164 13.99370876 2.1150587 21 4 C21 7.3 21 10.6 21 14 C17.93349461 14.14262816 15.55722757 14.22590307 12.6875 13.0625 C9.68470547 11.87534868 6.87545623 11.3654548 3.6875 10.875 C2.61886719 10.70742187 1.55023438 10.53984375 0.44921875 10.3671875 C-0.35902344 10.24601563 -1.16726562 10.12484375 -2 10 C-2 9.01 -2 8.02 -2 7 C5.52592433 7.6377902 12.67098882 9.19889833 20 11 C19.67 9.68 19.34 8.36 19 7 C16.77092605 6.52040222 14.54173703 6.0413392 12.3125 5.5625 C11.07113281 5.29566406 9.82976562 5.02882812 8.55078125 4.75390625 C5.70387985 4.14944864 2.85544374 3.56235316 0 3 C0 2.01 0 1.02 0 0 Z " fill="#9C938C" transform="translate(190,161)"/>
<path d="M0 0 C1.60463449 0.31008884 3.20869231 0.62316287 4.8125 0.9375 C5.70582031 1.11152344 6.59914062 1.28554687 7.51953125 1.46484375 C10 2 10 2 13 3 C13 3.66 13 4.32 13 5 C13.66 5 14.32 5 15 5 C16.79477439 8.81389558 17.37453719 11.78645663 17 16 C16.34 16.66 15.68 17.32 15 18 C14.59952556 20.32275177 14.2602896 22.65739357 14 25 C12.68 25.33 11.36 25.66 10 26 C10.62197123 19.66118686 11.28542887 13.32905858 12 7 C9.03 6.01 6.06 5.02 3 4 C2.67 5.65 2.34 7.3 2 9 C1.67 9 1.34 9 1 9 C0.67 6.03 0.34 3.06 0 0 Z " fill="#526756" transform="translate(218,131)"/>
<path d="M0 0 C10.55808656 1.92710706 10.55808656 1.92710706 15 4 C15 4.33 15 4.66 15 5 C12.03 4.67 9.06 4.34 6 4 C6.33 4.99 6.66 5.98 7 7 C8.97522757 7.85122184 8.97522757 7.85122184 11.40234375 8.31640625 C12.29244141 8.52330078 13.18253906 8.73019531 14.09960938 8.94335938 C15.03611328 9.14767578 15.97261719 9.35199219 16.9375 9.5625 C18.78138284 9.97409237 20.6239183 10.39178209 22.46484375 10.81640625 C23.285896 10.99631104 24.10694824 11.17621582 24.95288086 11.36157227 C27 12 27 12 29 14 C22.4576343 14.20956527 16.78261159 13.54580496 10.4375 12 C9.61958984 11.80921875 8.80167969 11.6184375 7.95898438 11.421875 C5.97056956 10.95674873 3.98496244 10.47964573 2 10 C2.99 9.34 3.98 8.68 5 8 C4.030625 7.566875 3.06125 7.13375 2.0625 6.6875 C-1 5 -1 5 -2 2 C-1.34 2 -0.68 2 0 2 C0 1.34 0 0.68 0 0 Z " fill="#6B8671" transform="translate(178,185)"/>
<path d="M0 0 C0 3 0 3 -2.3125 5.625 C-5 8 -5 8 -8 9 C-8 9.66 -8 10.32 -8 11 C-9.78857422 11.09087891 -9.78857422 11.09087891 -11.61328125 11.18359375 C-13.17969925 11.26801149 -14.74610488 11.35265887 -16.3125 11.4375 C-17.09818359 11.47681641 -17.88386719 11.51613281 -18.69335938 11.55664062 C-19.45068359 11.59853516 -20.20800781 11.64042969 -20.98828125 11.68359375 C-21.68477783 11.72025146 -22.38127441 11.75690918 -23.09887695 11.79467773 C-25.2216572 11.95581153 -25.2216572 11.95581153 -28 13 C-28.73323796 15.01508358 -28.73323796 15.01508358 -29 17 C-33.75 15.125 -33.75 15.125 -36 14 C-35.38461538 8.46153846 -35.38461538 8.46153846 -33.4375 6.125 C-32.963125 5.75375 -32.48875 5.3825 -32 5 C-32 6.65 -32 8.3 -32 10 C-27.85906302 10.20970559 -27.85906302 10.20970559 -24 9 C-20.65844662 8.72300281 -17.31714126 8.55299296 -13.96875 8.37890625 C-10.88509744 8.29302673 -10.88509744 8.29302673 -9 6 C-7.824375 5.566875 -7.824375 5.566875 -6.625 5.125 C-3.69882485 3.87092493 -2.11260516 2.34733907 0 0 Z " fill="#586667" transform="translate(149,162)"/>
<path d="M0 0 C0.33 0.66 0.66 1.32 1 2 C-0.98 2.99 -0.98 2.99 -3 4 C-3 5.98 -3 7.96 -3 10 C-2.34 10.33 -1.68 10.66 -1 11 C-2 12 -2 12 -3.84765625 12.09765625 C-5.8984375 12.06510417 -7.94921875 12.03255208 -10 12 C-10.33 13.32 -10.66 14.64 -11 16 C-13.4915904 12.2626144 -13.45793285 10.42668417 -13 6 C-9.18395402 0.14872949 -6.78763028 -0.12569686 0 0 Z " fill="#6E5C51" transform="translate(188,97)"/>
<path d="M0 0 C-1.0915076 10.69677451 -3.48866082 21.19932229 -6.0625 31.625 C-6.22468018 32.28757813 -6.38686035 32.95015625 -6.55395508 33.6328125 C-7.45821004 37.21496508 -8.5374043 40.60677797 -10 44 C-10.66 44 -11.32 44 -12 44 C-11.54775239 38.08507728 -10.8417395 32.64800112 -9 27 C-8.34 27 -7.68 27 -7 27 C-6.95101562 26.10539062 -6.90203125 25.21078125 -6.8515625 24.2890625 C-5.65530057 4.94261958 -5.65530057 4.94261958 -2.4921875 1.23046875 C-1 0 -1 0 0 0 Z " fill="#476653" transform="translate(177,142)"/>
<path d="M0 0 C0.8125 1.625 0.8125 1.625 1 4 C-2.02879384 8.54319075 -5.62202528 12.41931148 -11 14 C-15.6873124 14.31865501 -20.31022749 14.2341634 -25 14 C-25 14.66 -25 15.32 -25 16 C-25.66 16 -26.32 16 -27 16 C-25.125 11.125 -25.125 11.125 -24 10 C-21.30764224 9.76321284 -18.63501844 9.57801975 -15.9375 9.4375 C-15.17888672 9.39431641 -14.42027344 9.35113281 -13.63867188 9.30664062 C-11.75934562 9.20026367 -9.87969756 9.09960066 -8 9 C-8 8.34 -8 7.68 -8 7 C-6.00669158 5.65668346 -4.00615134 4.32405988 -2 3 C-1.34 2.01 -0.68 1.02 0 0 Z " fill="#65554A" transform="translate(149,164)"/>
<path d="M0 0 C1.8125 0.5625 1.8125 0.5625 4 2 C6.6678167 7.09076133 7.44959755 11.29891919 7.3125 17.0625 C7.31572266 17.74376953 7.31894531 18.42503906 7.32226562 19.12695312 C7.27666517 23.44241422 6.57055494 26.98914058 5 31 C4.67 31 4.34 31 4 31 C3.67 29.35 3.34 27.7 3 26 C1.35 27.65 -0.3 29.3 -2 31 C-2.99 30.67 -3.98 30.34 -5 30 C-3.50260417 28.828125 -2.00520833 27.65625 -0.5078125 26.484375 C2.18588995 23.83254357 2.93067381 21.70496627 3.30078125 17.94140625 C3.30464844 16.82636719 3.30851563 15.71132812 3.3125 14.5625 C3.32925781 13.45003906 3.34601563 12.33757812 3.36328125 11.19140625 C2.96438286 7.6871053 1.89665255 5.91754205 0 3 C0 2.01 0 1.02 0 0 Z " fill="#636F72" transform="translate(146,137)"/>
<path d="M0 0 C1.4540625 0.0309375 1.4540625 0.0309375 2.9375 0.0625 C2.6075 0.7225 2.2775 1.3825 1.9375 2.0625 C0.6175 2.0625 -0.7025 2.0625 -2.0625 2.0625 C-2.195354 3.0716748 -2.32820801 4.08084961 -2.46508789 5.12060547 C-3.02997624 8.84789901 -3.77055042 12.46131292 -4.62109375 16.1328125 C-4.84491478 17.09899002 -4.84491478 17.09899002 -5.07325745 18.08468628 C-5.38693396 19.43457481 -5.70213232 20.78411054 -6.01879883 22.13330078 C-6.50010929 24.18796655 -6.97394744 26.24426154 -7.44726562 28.30078125 C-7.75475891 29.61989651 -8.06268675 30.93891057 -8.37109375 32.2578125 C-8.64751709 33.44391113 -8.92394043 34.63000977 -9.20874023 35.85205078 C-9.96969926 38.71353526 -10.89205307 41.34711426 -12.0625 44.0625 C-12.3925 44.0625 -12.7225 44.0625 -13.0625 44.0625 C-12.52353347 35.57377713 -10.6717367 27.54648438 -8.62402344 19.32324219 C-8.05511799 17.03277941 -7.49914018 14.73946338 -6.9453125 12.4453125 C-6.58908282 10.98424295 -6.23233123 9.52330053 -5.875 8.0625 C-5.70830811 7.37397949 -5.54161621 6.68545898 -5.36987305 5.97607422 C-3.9051824 0.0796976 -3.9051824 0.0796976 0 0 Z " fill="#717566" transform="translate(187.0625,129.9375)"/>
<path d="M0 0 C3.5 0.875 3.5 0.875 5.4375 2.6875 C6.5 4.875 6.5 4.875 6.5 8.875 C7.49580078 8.94847656 7.49580078 8.94847656 8.51171875 9.0234375 C17.28207381 9.76603691 17.28207381 9.76603691 21.5 11.875 C21.5 12.205 21.5 12.535 21.5 12.875 C19.24943278 12.76066637 16.99953326 12.63313564 14.75 12.5 C12.87054688 12.39558594 12.87054688 12.39558594 10.953125 12.2890625 C7.88295116 11.92091948 6.00205479 11.64115632 3.5 9.875 C2.75 7.25 2.75 7.25 2.5 4.875 C-0.47 4.38 -0.47 4.38 -3.5 3.875 C-4.16 5.195 -4.82 6.515 -5.5 7.875 C-8.14 7.875 -10.78 7.875 -13.5 7.875 C-13.5 7.545 -13.5 7.215 -13.5 6.875 C-11.19 6.875 -8.88 6.875 -6.5 6.875 C-6.5 6.215 -6.5 5.555 -6.5 4.875 C-8.81 4.875 -11.12 4.875 -13.5 4.875 C-13.5 4.545 -13.5 4.215 -13.5 3.875 C-12.406875 3.58625 -11.31375 3.2975 -10.1875 3 C-0.31705151 -0.01132327 -0.31705151 -0.01132327 0 0 Z " fill="#6C7276" transform="translate(208.5,120.125)"/>
<path d="M0 0 C0.33 0 0.66 0 1 0 C1.40086134 7.48274504 0.52439846 13.09694177 -4.5 18.875 C-8.22673972 22.04272876 -10.12908228 23.26329285 -15 23 C-15.33 21.35 -15.66 19.7 -16 18 C-14.948125 18 -13.89625 18 -12.8125 18 C-8.5877839 16.89187774 -8.33416865 16.58710324 -6.25 13.0625 C-5.88390625 12.35222656 -5.5178125 11.64195312 -5.140625 10.91015625 C-4 9 -4 9 -1 7 C-0.26393501 3.43230448 -0.26393501 3.43230448 0 0 Z " fill="#706159" transform="translate(238,163)"/>
<path d="M0 0 C1.48011371 0.30798326 2.95907325 0.621518 4.4375 0.9375 C5.26121094 1.11152344 6.08492187 1.28554687 6.93359375 1.46484375 C9 2 9 2 10 3 C9.48835292 9.44675319 8.35842104 15.68268273 7 22 C6.01 22 5.02 22 4 22 C4.63065155 16.2190275 5.65155132 10.6556294 7 5 C6.34 5 5.68 5 5 5 C5 6.65 5 8.3 5 10 C4.67 8.68 4.34 7.36 4 6 C2.35 5.67 0.7 5.34 -1 5 C-0.67 3.35 -0.34 1.7 0 0 Z " fill="#859F8A" transform="translate(221,135)"/>
<path d="M0 0 C0.33 0.99 0.66 1.98 1 3 C1.66 3 2.32 3 3 3 C2.77183594 4.07378906 2.54367188 5.14757812 2.30859375 6.25390625 C2.01762421 7.68998173 1.7272936 9.12618676 1.4375 10.5625 C1.28603516 11.26697266 1.13457031 11.97144531 0.97851562 12.69726562 C0.03616008 17.45287386 0.27440164 21.16471009 1 26 C0.34 26.66 -0.32 27.32 -1 28 C-1.33 27.67 -1.66 27.34 -2 27 C-2.66 27.66 -3.32 28.32 -4 29 C-6.91116768 23.17766463 -3.40458007 14.36087294 -1.69921875 8.49609375 C-0.91248893 5.68760015 -0.39047473 2.88951297 0 0 Z " fill="#79947E" transform="translate(175,150)"/>
<path d="M0 0 C0.33 1.32 0.66 2.64 1 4 C5.74740326 4.99589111 10.52752261 5.77318645 15.3125 6.5625 C16.56643555 6.77036133 16.56643555 6.77036133 17.84570312 6.98242188 C19.89701315 7.32235325 21.94849007 7.66127718 24 8 C24.33 6.68 24.66 5.36 25 4 C25.19412181 5.47831221 25.38012131 6.95769316 25.5625 8.4375 C25.66691406 9.26121094 25.77132812 10.08492187 25.87890625 10.93359375 C25.91886719 11.61550781 25.95882812 12.29742187 26 13 C25 14 25 14 21.9375 14.0625 C20.968125 14.041875 19.99875 14.02125 19 14 C20.32 13.34 21.64 12.68 23 12 C15.39353334 9.54399352 7.88416983 7.35258896 0 6 C0 4.02 0 2.04 0 0 Z " fill="#92A0A8" transform="translate(194,128)"/>
<path d="M0 0 C0.66 0.33 1.32 0.66 2 1 C1.34 3.64 0.68 6.28 0 9 C-4.37498593 9.02913072 -8.74994674 9.04684286 -13.125 9.0625 C-14.3625 9.07087891 -15.6 9.07925781 -16.875 9.08789062 C-18.07382813 9.09111328 -19.27265625 9.09433594 -20.5078125 9.09765625 C-22.15740967 9.10551147 -22.15740967 9.10551147 -23.84033203 9.11352539 C-26.97618105 9.0008558 -29.92059383 8.58626376 -33 8 C-33 7.34 -33 6.68 -33 6 C-32.11248047 5.81824219 -32.11248047 5.81824219 -31.20703125 5.6328125 C-26.96196415 4.73255357 -22.97560339 3.79543379 -19 2 C-20.65 3.65 -22.3 5.3 -24 7 C-16.74 7.33 -9.48 7.66 -2 8 C-2 6.02 -2 4.04 -2 2 C-1.34 1.34 -0.68 0.68 0 0 Z " fill="#78685C" transform="translate(164,172)"/>
<path d="M0 0 C0.66 0 1.32 0 2 0 C4.12142857 14.85 4.12142857 14.85 -0.0625 21.0625 C-0.701875 21.701875 -1.34125 22.34125 -2 23 C1.3 23.33 4.6 23.66 8 24 C8 24.33 8 24.66 8 25 C4.04 25 0.08 25 -4 25 C-3 20 -3 20 -1.9765625 17.1484375 C-0.87009549 13.58118785 -0.58582043 10.34949428 -0.375 6.625 C-0.30023438 5.37976563 -0.22546875 4.13453125 -0.1484375 2.8515625 C-0.09945312 1.91054687 -0.05046875 0.96953125 0 0 Z " fill="#908378" transform="translate(153,148)"/>
<path d="M0 0 C0.66 0 1.32 0 2 0 C1.68985608 2.08368538 1.3767948 4.16693668 1.0625 6.25 C0.88847656 7.41015625 0.71445313 8.5703125 0.53515625 9.765625 C0.1272264 12.23106961 -0.33901303 14.59424562 -1 17 C0.32 17.33 1.64 17.66 3 18 C2.01 18.33 1.02 18.66 0 19 C0 19.66 0 20.32 0 21 C-3.96 21.495 -3.96 21.495 -8 22 C-8 21.34 -8 20.68 -8 20 C-7.34 19.67 -6.68 19.34 -6 19 C-6.66 18.34 -7.32 17.68 -8 17 C-6.68 16.67 -5.36 16.34 -4 16 C-3.87882813 15.43152344 -3.75765625 14.86304688 -3.6328125 14.27734375 C-2.58677946 9.45754536 -1.40795516 4.7267066 0 0 Z " fill="#70665D" transform="translate(226,140)"/>
<path d="M0 0 C0.20674844 5.06533667 -0.13882739 9.25400985 -2 14 C-4.078125 15.19921875 -4.078125 15.19921875 -6 16 C-6.28580038 11.9606879 -6.45020582 8.03041398 -6 4 C-2.45454545 0 -2.45454545 0 0 0 Z " fill="#576C59" transform="translate(180,128)"/>
<path d="M0 0 C0.48210937 0.42152344 0.96421875 0.84304687 1.4609375 1.27734375 C2.09257813 1.82519531 2.72421875 2.37304688 3.375 2.9375 C4.00148438 3.48277344 4.62796875 4.02804688 5.2734375 4.58984375 C8.82327738 7.48914736 11.61626421 7.10348851 16.125 7.0625 C17.40632813 7.05347656 18.68765625 7.04445312 20.0078125 7.03515625 C21.48894531 7.01775391 21.48894531 7.01775391 23 7 C22.67 7.66 22.34 8.32 22 9 C19.26953125 9.37890625 19.26953125 9.37890625 15.8125 9.5625 C12.37598034 9.7549451 9.08952699 9.98400169 5.69921875 10.58984375 C3 11 3 11 1 10 C0.5859375 7.71484375 0.5859375 7.71484375 0.375 4.9375 C0.30023438 4.01839844 0.22546875 3.09929687 0.1484375 2.15234375 C0.09945312 1.44207031 0.05046875 0.73179687 0 0 Z " fill="#5D737F" transform="translate(116,162)"/>
<path d="M0 0 C6.14154225 0.58490879 12.00679849 1.54066252 18 3 C18 3.99 18 4.98 18 6 C5.33029613 5.40546697 5.33029613 5.40546697 0 2 C0 1.34 0 0.68 0 0 Z " fill="#998F88" transform="translate(186,175)"/>
<path d="M0 0 C0.33 0.66 0.66 1.32 1 2 C3.01669827 3.13350534 3.01669827 3.13350534 5 4 C4.01 4 3.02 4 2 4 C2.061875 4.721875 2.12375 5.44375 2.1875 6.1875 C1.96476068 9.52858974 0.8717754 11.27032755 -1 14 C-2.58367747 13.85795259 -4.16693318 13.71119847 -5.75 13.5625 C-6.63171875 13.48128906 -7.5134375 13.40007812 -8.421875 13.31640625 C-10.69350452 13.03761535 -12.79851823 12.61209423 -15 12 C-15 11.34 -15 10.68 -15 10 C-10.71 10.33 -6.42 10.66 -2 11 C-1.34 7.37 -0.68 3.74 0 0 Z " fill="#696F60" transform="translate(215,181)"/>
<path d="M0 0 C0.33 0.66 0.66 1.32 1 2 C3.80478195 2.91485573 3.80478195 2.91485573 7.0625 3.625 C8.16722656 3.88539063 9.27195313 4.14578125 10.41015625 4.4140625 C11.26480469 4.60742188 12.11945313 4.80078125 13 5 C13 5.99 13 6.98 13 8 C11.948125 7.649375 10.89625 7.29875 9.8125 6.9375 C5.2955515 5.80687761 5.2955515 5.80687761 1 7 C-0.77148372 9.47933197 -0.77148372 9.47933197 -2 12 C-2.33 12 -2.66 12 -3 12 C-3.2954439 6.97745369 -2.98514628 4.10457614 0 0 Z " fill="#91AFA5" transform="translate(122,142)"/>
<path d="M0 0 C-1.86977097 2.44710376 -2.82502483 2.96931493 -5.91796875 3.51171875 C-7.53638672 3.59873047 -7.53638672 3.59873047 -9.1875 3.6875 C-10.27417969 3.75324219 -11.36085938 3.81898438 -12.48046875 3.88671875 C-13.72763672 3.94279297 -13.72763672 3.94279297 -15 4 C-15 4.66 -15 5.32 -15 6 C-15.66 6 -16.32 6 -17 6 C-15.125 1.125 -15.125 1.125 -14 0 C-12.21533207 -0.26159628 -10.42117545 -0.45999701 -8.625 -0.625 C-7.15933594 -0.76808594 -7.15933594 -0.76808594 -5.6640625 -0.9140625 C-3 -1 -3 -1 0 0 Z " fill="#5A4E46" transform="translate(139,174)"/>
<path d="M0 0 C0.91145054 2.97022221 1.01801972 5.06485586 0.44140625 8.109375 C0.30283203 8.86347656 0.16425781 9.61757812 0.02148438 10.39453125 C-0.12998047 11.17183594 -0.28144531 11.94914063 -0.4375 12.75 C-0.58509766 13.54277344 -0.73269531 14.33554688 -0.88476562 15.15234375 C-1.24903966 17.10297246 -1.62352512 19.0516893 -2 21 C-2.66 21 -3.32 21 -4 21 C-4.33 21.99 -4.66 22.98 -5 24 C-5.33 24 -5.66 24 -6 24 C-5.32418477 17.91766294 -4.26361972 11.98685848 -3 6 C-2.34 6 -1.68 6 -1 6 C-0.67 4.02 -0.34 2.04 0 0 Z " fill="#616657" transform="translate(172,148)"/>
<path d="M0 0 C2.69082872 0.17635452 5.32851446 0.61835921 8 1 C8.33 2.65 8.66 4.3 9 6 C1.57142857 6.14285714 1.57142857 6.14285714 -2 5 C-1.125 1.125 -1.125 1.125 0 0 Z " fill="#728B7D" transform="translate(188,149)"/>
<path d="M0 0 C6.14154225 0.58490879 12.00679849 1.54066252 18 3 C17.01 4.485 17.01 4.485 16 6 C10.63486869 5.152874 5.3212615 4.08318169 0 3 C0 2.01 0 1.02 0 0 Z " fill="#99908B" transform="translate(190,161)"/>
<path d="M0 0 C0.33 0.66 0.66 1.32 1 2 C0.70351562 2.68449219 0.40703125 3.36898437 0.1015625 4.07421875 C-1.3728382 7.99026883 -1.4579497 11.66060411 -1.625 15.8125 C-1.66367188 16.60076172 -1.70234375 17.38902344 -1.7421875 18.20117188 C-1.83588844 20.1337538 -1.91900779 22.06684376 -2 24 C-3.32 23.67 -4.64 23.34 -6 23 C-5.34 23 -4.68 23 -4 23 C-4.02320312 21.74703125 -4.04640625 20.4940625 -4.0703125 19.203125 C-4.08907427 17.5520893 -4.10727403 15.90104715 -4.125 14.25 C-4.14175781 13.425 -4.15851563 12.6 -4.17578125 11.75 C-4.18222656 10.95078125 -4.18867187 10.1515625 -4.1953125 9.328125 C-4.20578613 8.5949707 -4.21625977 7.86181641 -4.22705078 7.10644531 C-3.96335992 4.66007461 -3.29409777 3.08395736 -2 1 C-1.34 0.67 -0.68 0.34 0 0 Z " fill="#8D7E74" transform="translate(111,143)"/>
<path d="M0 0 C1.6875 1.4375 1.6875 1.4375 3 4 C2.47134585 7.20034717 1.49899854 10.12414354 0 13 C-3 15 -3 15 -5.26171875 14.7578125 C-6.06222656 14.54898438 -6.86273438 14.34015625 -7.6875 14.125 C-8.49574219 13.92132813 -9.30398437 13.71765625 -10.13671875 13.5078125 C-11.05904297 13.25644531 -11.05904297 13.25644531 -12 13 C-12 12.67 -12 12.34 -12 12 C-7.545 11.505 -7.545 11.505 -3 11 C-1.38935371 7.34920174 -0.55105909 3.9492568 0 0 Z " fill="#577362" transform="translate(219,187)"/>
<path d="M0 0 C0.5625 1.9375 0.5625 1.9375 1 4 C0 5 0 5 -2.28515625 5.09765625 C-3.65994141 5.08025391 -3.65994141 5.08025391 -5.0625 5.0625 C-5.98160156 5.05347656 -6.90070313 5.04445312 -7.84765625 5.03515625 C-8.55792969 5.02355469 -9.26820312 5.01195312 -10 5 C-10 3.68 -10 2.36 -10 1 C-6.78548731 -0.60725635 -3.56387464 -0.05748185 0 0 Z " fill="#C8E1D9" transform="translate(136,141)"/>
<path d="M0 0 C2.00720923 0.28674418 4.0085944 0.61866701 6 1 C6.33 2.65 6.66 4.3 7 6 C6.01 6.33 5.02 6.66 4 7 C4 5.35 4 3.7 4 2 C3.01 2.33 2.02 2.66 1 3 C0.67 3.99 0.34 4.98 0 6 C-2.97 6 -5.94 6 -9 6 C-9.33 6.66 -9.66 7.32 -10 8 C-10 7.01 -10 6.02 -10 5 C-7.36 5 -4.72 5 -2 5 C-1.855625 4.360625 -1.71125 3.72125 -1.5625 3.0625 C-1 1 -1 1 0 0 Z M2 7 C2.99 7.495 2.99 7.495 4 8 C3.01 8.495 3.01 8.495 2 9 C2 8.34 2 7.68 2 7 Z " fill="#C1CCD3" transform="translate(205,123)"/>
<path d="M0 0 C2.5 0.125 2.5 0.125 3.5 1.125 C3.625 3.625 3.625 3.625 3.5 6.125 C2.5 7.125 2.5 7.125 -0.0625 7.1875 C-1.2690625 7.1565625 -1.2690625 7.1565625 -2.5 7.125 C-2.88133299 5.1335944 -3.21325582 3.13220923 -3.5 1.125 C-2.5 0.125 -2.5 0.125 0 0 Z " fill="#F5F4F3" transform="translate(187.5,99.875)"/>
<path d="M0 0 C6.30367803 0.58367389 11.98660063 2.04071619 18 4 C18 4.33 18 4.66 18 5 C11.28299653 5.31985731 6.24273068 4.4793824 0 2 C0 1.34 0 0.68 0 0 Z " fill="#4B6C5A" transform="translate(189,194)"/>
<path d="M0 0 C0.33 0 0.66 0 1 0 C1.05402274 2.10388569 1.09280256 4.20816714 1.125 6.3125 C1.14820313 7.48425781 1.17140625 8.65601563 1.1953125 9.86328125 C1 13 1 13 -1 16 C-3.125 16.6875 -3.125 16.6875 -5 17 C-4.690625 16.34 -4.38125 15.68 -4.0625 15 C-3.16292037 12.46001045 -2.77082715 10.57190954 -2.5 7.9375 C-2.08188387 4.64483547 -1.71823274 2.74917239 0 0 Z " fill="#AABBC4" transform="translate(149,145)"/>
<path d="M0 0 C1.93798521 0.30947671 3.87537426 0.62268834 5.8125 0.9375 C6.89144531 1.11152344 7.97039062 1.28554687 9.08203125 1.46484375 C12 2 12 2 15 3 C15 3.99 15 4.98 15 6 C13.24970238 5.68917128 11.49977306 5.37626821 9.75 5.0625 C8.28820312 4.80146484 8.28820312 4.80146484 6.796875 4.53515625 C4.50278205 4.09620271 2.25708029 3.59651408 0 3 C0 2.01 0 1.02 0 0 Z " fill="#99958E" transform="translate(203,146)"/>
<path d="M0 0 C1.33417969 0.00386719 1.33417969 0.00386719 2.6953125 0.0078125 C3.57960937 0.00523437 4.46390625 0.00265625 5.375 0 C7.8203125 0.1328125 7.8203125 0.1328125 10.8203125 1.1328125 C10.4903125 2.7828125 10.1603125 4.4328125 9.8203125 6.1328125 C9.1603125 5.1428125 8.5003125 4.1528125 7.8203125 3.1328125 C5.38337939 2.76865203 5.38337939 2.76865203 2.6953125 2.9453125 C1.33019531 2.98591797 1.33019531 2.98591797 -0.0625 3.02734375 C-0.76117188 3.06214844 -1.45984375 3.09695312 -2.1796875 3.1328125 C-2.5096875 4.1228125 -2.8396875 5.1128125 -3.1796875 6.1328125 C-3.8396875 5.8028125 -4.4996875 5.4728125 -5.1796875 5.1328125 C-2.77797199 0.16926711 -2.77797199 0.16926711 0 0 Z " fill="#B0CFC6" transform="translate(128.1796875,138.8671875)"/>
<path d="M0 0 C1.66611905 -0.042721 3.33382885 -0.04063832 5 0 C6 1 6 1 6.0625 3.5625 C6.041875 4.366875 6.02125 5.17125 6 6 C3.625 6.625 3.625 6.625 1 7 C0.34 6.34 -0.32 5.68 -1 5 C-0.625 2.375 -0.625 2.375 0 0 Z " fill="#F8F7F7" transform="translate(118,100)"/>
<path d="M0 0 C-0.99 0 -1.98 0 -3 0 C-3.66 1.65 -4.32 3.3 -5 5 C-7.31 5.33 -9.62 5.66 -12 6 C-11.01 5.67 -10.02 5.34 -9 5 C-9 4.34 -9 3.68 -9 3 C-9.99 2.67 -10.98 2.34 -12 2 C-12 1.34 -12 0.68 -12 0 C-3.42857143 -1.28571429 -3.42857143 -1.28571429 0 0 Z " fill="#5E6B64" transform="translate(112,198)"/>
<path d="M0 0 C4.95 0.99 4.95 0.99 10 2 C10.33 2.99 10.66 3.98 11 5 C8.36 4.67 5.72 4.34 3 4 C2.67 5.65 2.34 7.3 2 9 C1.67 9 1.34 9 1 9 C0.67 6.03 0.34 3.06 0 0 Z " fill="#556965" transform="translate(218,131)"/>
<path d="M0 0 C4.875 0.875 4.875 0.875 6 2 C6.04063832 3.66617115 6.042721 5.33388095 6 7 C3.625 7.1875 3.625 7.1875 1 7 C-1 4 -1 4 -0.625 1.8125 C-0.41875 1.214375 -0.2125 0.61625 0 0 Z " fill="#C6B7A9" transform="translate(197,82)"/>
<path d="M0 0 C0.99 0.33 1.98 0.66 3 1 C2.54753906 1.3403125 2.09507812 1.680625 1.62890625 2.03125 C-0.70226323 4.84877858 -1.25564691 8.01359777 -2.0625 11.5 C-3.75332594 18.62998891 -3.75332594 18.62998891 -6 22 C-5.37826414 14.29047535 -4.36475736 6.54713603 0 0 Z " fill="#9C8D7F" transform="translate(175,128)"/>
<path d="M0 0 C3.3 0 6.6 0 10 0 C10 0.66 10 1.32 10 2 C7.69 2.33 5.38 2.66 3 3 C2.34 4.98 1.68 6.96 1 9 C0.67 8.34 0.34 7.68 0 7 C-0.99 6.67 -1.98 6.34 -3 6 C-2.01 6 -1.02 6 0 6 C0 5.01 0 4.02 0 3 C-0.99 2.67 -1.98 2.34 -3 2 C-2.01 2 -1.02 2 0 2 C0 1.34 0 0.68 0 0 Z " fill="#617173" transform="translate(192,125)"/>
<path d="M0 0 C0 3 0 3 -2.0625 5.1875 C-5.70460144 7.43475408 -7.78457299 7.45986476 -12 7 C-14.375 6.25 -14.375 6.25 -16 5 C-16.75 2.875 -16.75 2.875 -17 1 C-15.9790625 1.7425 -15.9790625 1.7425 -14.9375 2.5 C-11.27568094 4.36986505 -9.06785405 4.50848176 -5 4 C-2.09190457 2.14283813 -2.09190457 2.14283813 0 0 Z " fill="#C5B3A6" transform="translate(193,112)"/>
<path d="M0 0 C0.92470553 4.71599818 1.22923777 7.67265609 -1 12 C-1.33 12 -1.66 12 -2 12 C-2 9.36 -2 6.72 -2 4 C-3.32 3.34 -4.64 2.68 -6 2 C-3 0 -3 0 0 0 Z " fill="#5D6052" transform="translate(222,180)"/>
<path d="M0 0 C0.33 1.32 0.66 2.64 1 4 C1.99580078 4.07347656 1.99580078 4.07347656 3.01171875 4.1484375 C11.78207381 4.89103691 11.78207381 4.89103691 16 7 C16 7.33 16 7.66 16 8 C13.74943278 7.88566637 11.49953326 7.75813564 9.25 7.625 C7.99703125 7.55539063 6.7440625 7.48578125 5.453125 7.4140625 C2.39001879 7.04676696 0.58025734 6.60288714 -2 5 C-1.125 1.125 -1.125 1.125 0 0 Z " fill="#7E8282" transform="translate(214,125)"/>
<path d="M0 0 C3 1 3 1 4.75 3.0625 C6.95087717 5.3381426 6.95087717 5.3381426 10.5 5.3125 C13.15656723 5.0753065 15.47388634 4.80835637 18 4 C15.68166316 6.96747116 14.44093982 7.91680381 10.6875 8.625 C5.9069147 7.81473131 3.12472912 5.66609556 0 2 C0 1.34 0 0.68 0 0 Z " fill="#C4B2A7" transform="translate(107,111)"/>
<path d="M0 0 C1.65 0 3.3 0 5 0 C5.33 1.98 5.66 3.96 6 6 C4.68 6.33 3.36 6.66 2 7 C0.4375 5.1875 0.4375 5.1875 -1 3 C-0.67 2.01 -0.34 1.02 0 0 Z " fill="#918077" transform="translate(110,109)"/>
<path d="M0 0 C1.98 0 3.96 0 6 0 C5.67 0.66 5.34 1.32 5 2 C3.68 2 2.36 2 1 2 C0.855625 3.051875 0.71125 4.10375 0.5625 5.1875 C0.12473034 8.15460549 -0.37804866 11.06794366 -1 14 C-1.66 13.67 -2.32 13.34 -3 13 C-2.52060632 8.28596212 -2.03165952 4.33420699 0 0 Z " fill="#767D70" transform="translate(184,130)"/>
<path d="M0 0 C1.45880109 0.14107747 2.91703551 0.28802415 4.375 0.4375 C5.59316406 0.55931641 5.59316406 0.55931641 6.8359375 0.68359375 C9 1 9 1 11 2 C11 2.99 11 3.98 11 5 C6.94393835 4.53199289 3.53411321 4.12046792 0 2 C0 1.34 0 0.68 0 0 Z " fill="#A3A09A" transform="translate(201,153)"/>
<path d="M0 0 C3.93673644 1.31224548 6.22719294 2.91910327 9 6 C8.34 6.66 7.68 7.32 7 8 C3.59244728 6.07119658 0.25852365 4.1723491 -3 2 C-2.01 2 -1.02 2 0 2 C0 1.34 0 0.68 0 0 Z " fill="#717B81" transform="translate(138,131)"/>
<path d="M0 0 C6.625 -0.125 6.625 -0.125 10 1 C10 1.99 10 2.98 10 4 C8.01432292 3.96744792 6.02864583 3.93489583 4.04296875 3.90234375 C1.79694539 3.91736783 1.79694539 3.91736783 -1 5 C-0.67 3.35 -0.34 1.7 0 0 Z " fill="#8FAC99" transform="translate(182,127)"/>
<path d="M0 0 C0.66 0 1.32 0 2 0 C1.7168444 2.08450717 1.42314331 4.16758367 1.125 6.25 C0.96257812 7.41015625 0.80015625 8.5703125 0.6328125 9.765625 C0.08179569 12.58193313 -0.55796482 14.55217557 -2 17 C-3.5197276 10.6447755 -2.1663492 6.08291273 0 0 Z " fill="#72796B" transform="translate(226,140)"/>
<path d="M0 0 C0.33 0 0.66 0 1 0 C1.34548714 6.33393082 0.29342747 11.10261508 -2 17 C-2.66 17 -3.32 17 -4 17 C-3.35729017 11.0870696 -1.80996216 5.65755469 0 0 Z " fill="#807869" transform="translate(173,137)"/>
<path d="M0 0 C4.95 0.99 4.95 0.99 10 2 C9.01 2.495 9.01 2.495 8 3 C8 3.66 8 4.32 8 5 C5.69 5 3.38 5 1 5 C0.67 3.35 0.34 1.7 0 0 Z " fill="#778171" transform="translate(192,188)"/>
<path d="M0 0 C1.65 0.33 3.3 0.66 5 1 C4.67 2.65 4.34 4.3 4 6 C2.35 5.67 0.7 5.34 -1 5 C-0.67 3.35 -0.34 1.7 0 0 Z " fill="#7D9186" transform="translate(191,142)"/>
<path d="M0 0 C1.58409994 0.11487748 3.16728963 0.24234508 4.75 0.375 C6.07257813 0.47941406 6.07257813 0.47941406 7.421875 0.5859375 C9.99066382 0.99850055 11.75841015 1.71160957 14 3 C14 3.33 14 3.66 14 4 C9.83861737 4.08159574 6.0527516 3.98248524 2 3 C2 2.34 2 1.68 2 1 C1.34 0.67 0.68 0.34 0 0 Z " fill="#6C7A81" transform="translate(204,137)"/>
<path d="M0 0 C1.98 1.65 3.96 3.3 6 5 C5.67 6.65 5.34 8.3 5 10 C3.68 10 2.36 10 1 10 C0.67 6.7 0.34 3.4 0 0 Z " fill="#687E88" transform="translate(116,162)"/>
<path d="M0 0 C-0.51949219 0.27972656 -1.03898437 0.55945313 -1.57421875 0.84765625 C-6.86076411 3.88668694 -9.76113394 6.83805721 -13 12 C-13 8.5323608 -12.72532897 7.01932571 -11 4 C-4.30672533 -1.43557511 -4.30672533 -1.43557511 0 0 Z " fill="#98928B" transform="translate(124,132)"/>
<path d="M0 0 C1.83245613 3.60172413 3.40813835 7.28565615 5 11 C5.65288627 12.34013497 6.31225595 13.67741528 7 15 C3.60472311 13.59505784 1.69352977 12.30238306 0 9 C-0.24492511 5.98273114 -0.17422028 3.01981824 0 0 Z " fill="#698284" transform="translate(117,149)"/>
<path d="M0 0 C4.97093824 0.41153737 9.44508386 0.79600832 14 3 C14 3.33 14 3.66 14 4 C8.93437617 4.25328119 4.84241633 3.33583899 0 2 C0 1.34 0 0.68 0 0 Z " fill="#6A6E5F" transform="translate(179,186)"/>
<path d="M0 0 C3 4 3 4 2.6875 7.75 C2.460625 8.8225 2.23375 9.895 2 11 C1.01 11.33 0.02 11.66 -1 12 C-0.67 8.04 -0.34 4.08 0 0 Z " fill="#688C76" transform="translate(169,175)"/>
<path d="M0 0 C0.33 0.66 0.66 1.32 1 2 C1.66 2.33 2.32 2.66 3 3 C2.71872579 4.48117801 2.42466268 5.95993249 2.125 7.4375 C1.96257812 8.26121094 1.80015625 9.08492187 1.6328125 9.93359375 C1.42398438 10.61550781 1.21515625 11.29742187 1 12 C0.01 12.495 0.01 12.495 -1 13 C-1.02696365 11.20841511 -1.04637917 9.41671527 -1.0625 7.625 C-1.07410156 6.62726563 -1.08570312 5.62953125 -1.09765625 4.6015625 C-1 2 -1 2 0 0 Z " fill="#B6C5CE" transform="translate(115,143)"/>
<path d="M0 0 C0.66 0.33 1.32 0.66 2 1 C1.34 2.98 0.68 4.96 0 7 C-2.64 7 -5.28 7 -8 7 C-8 6.67 -8 6.34 -8 6 C-5.69 6 -3.38 6 -1 6 C-1 5.34 -1 4.68 -1 4 C-3.31 4 -5.62 4 -8 4 C-8 3.67 -8 3.34 -8 3 C-6.865625 2.690625 -5.73125 2.38125 -4.5625 2.0625 C-1.21224901 1.37075469 -1.21224901 1.37075469 0 0 Z " fill="#80878B" transform="translate(203,121)"/>
<path d="M0 0 C1.13732426 3.40401948 0.83989957 5.77456664 0.0625 9.25 C-0.13214844 10.14203125 -0.32679688 11.0340625 -0.52734375 11.953125 C-0.68332031 12.62859375 -0.83929688 13.3040625 -1 14 C-1.66 14 -2.32 14 -3 14 C-2.48594831 9.03083364 -1.76615118 4.70973649 0 0 Z " fill="#505246" transform="translate(166,172)"/>
<path d="M0 0 C2.97 0.33 5.94 0.66 9 1 C8.34 1.66 7.68 2.32 7 3 C7.99 3.66 8.98 4.32 10 5 C3.375 4.25 3.375 4.25 0 2 C0 1.34 0 0.68 0 0 Z " fill="#AAA29C" transform="translate(186,175)"/>
<path d="M0 0 C1.093125 0.226875 2.18625 0.45375 3.3125 0.6875 C2.9825 1.6775 2.6525 2.6675 2.3125 3.6875 C3.3025 4.0175 4.2925 4.3475 5.3125 4.6875 C1.28257218 4.13437265 -2.70772924 3.5316938 -6.6875 2.6875 C-4.58035839 -0.41123767 -3.86755884 -0.32775922 0 0 Z " fill="#5C7A68" transform="translate(186.6875,192.3125)"/>
<path d="M0 0 C1.65 0 3.3 0 5 0 C4.01 0.495 4.01 0.495 3 1 C3.7425 1.680625 3.7425 1.680625 4.5 2.375 C6 4 6 4 6 6 C4.35 5.67 2.7 5.34 1 5 C0.67 3.35 0.34 1.7 0 0 Z " fill="#4B5D58" transform="translate(97,197)"/>
<path d="M0 0 C0.6875 1.8125 0.6875 1.8125 1 4 C-0.0625 5.6875 -0.0625 5.6875 -2 7 C-5.1875 7.6875 -5.1875 7.6875 -8 8 C-5.33333333 5.33333333 -2.66666667 2.66666667 0 0 Z " fill="#5D5852" transform="translate(149,164)"/>
<path d="M0 0 C6.52307692 -0.36923077 6.52307692 -0.36923077 8.9375 1.5 C9.288125 1.995 9.63875 2.49 10 3 C3.47692308 3.36923077 3.47692308 3.36923077 1.0625 1.5 C0.5365625 0.7575 0.5365625 0.7575 0 0 Z " fill="#486856" transform="translate(174,191)"/>
<path d="M0 0 C0.33 0.66 0.66 1.32 1 2 C3.01669827 3.13350534 3.01669827 3.13350534 5 4 C4.01 4 3.02 4 2 4 C2 5.65 2 7.3 2 9 C1.01 9 0.02 9 -1 9 C-0.67 6.03 -0.34 3.06 0 0 Z " fill="#717768" transform="translate(215,181)"/>
<path d="M0 0 C0.33 0 0.66 0 1 0 C1.1799928 5.21979128 0.97094808 9.07262981 -1 14 C-2.5 12.625 -2.5 12.625 -4 11 C-4 10.34 -4 9.68 -4 9 C-3.01 8.34 -2.02 7.68 -1 7 C-0.26393501 3.43230448 -0.26393501 3.43230448 0 0 Z " fill="#776C63" transform="translate(238,163)"/>
<path d="M0 0 C4.455 0.99 4.455 0.99 9 2 C9 2.66 9 3.32 9 4 C6.03 3.67 3.06 3.34 0 3 C0 2.01 0 1.02 0 0 Z " fill="#8BAA9A" transform="translate(221,135)"/>
<path d="M0 0 C6.75 -0.125 6.75 -0.125 9 1 C9 1.66 9 2.32 9 3 C5.7 2.67 2.4 2.34 -1 2 C-0.67 1.34 -0.34 0.68 0 0 Z " fill="#4D6655" transform="translate(183,124)"/>
<path d="M0 0 C1.67542976 0.28604898 3.34385343 0.61781233 5 1 C4.01 1.495 4.01 1.495 3 2 C3 2.66 3 3.32 3 4 C-0.63 3.67 -4.26 3.34 -8 3 C-8 2.67 -8 2.34 -8 2 C-6.865625 1.855625 -5.73125 1.71125 -4.5625 1.5625 C-1.19222799 1.38828522 -1.19222799 1.38828522 0 0 Z " fill="#BBCBD2" transform="translate(136,134)"/>
<path d="M0 0 C3.3 0 6.6 0 10 0 C9.67 0.99 9.34 1.98 9 3 C4.545 2.01 4.545 2.01 0 1 C0 0.67 0 0.34 0 0 Z " fill="#4B6959" transform="translate(207,199)"/>
<path d="M0 0 C2.97 0.33 5.94 0.66 9 1 C9 1.99 9 2.98 9 4 C2.25 2.25 2.25 2.25 0 0 Z " fill="#A0B4AC" transform="translate(126,146)"/>
<path d="M0 0 C1.98 0 3.96 0 6 0 C5.67 2.31 5.34 4.62 5 7 C4.67 5.68 4.34 4.36 4 3 C2.35 2.67 0.7 2.34 -1 2 C-0.67 1.34 -0.34 0.68 0 0 Z " fill="#848D83" transform="translate(221,138)"/>
<path d="M0 0 C3.67230705 3.07999946 4.56802365 5.2482602 5 10 C2.87961365 7.38485683 0.86908256 4.80362384 -1 2 C-0.67 1.34 -0.34 0.68 0 0 Z " fill="#B7A597" transform="translate(211,83)"/>
<path d="M0 0 C0.33 0 0.66 0 1 0 C0.67 2.97 0.34 5.94 0 9 C-0.66 9 -1.32 9 -2 9 C-1.125 1.125 -1.125 1.125 0 0 Z " fill="#697060" transform="translate(173,176)"/>
<path d="M0 0 C2.97 0.495 2.97 0.495 6 1 C5.01 2.485 5.01 2.485 4 4 C1.03 3.505 1.03 3.505 -2 3 C-1.34 2.01 -0.68 1.02 0 0 Z " fill="#AAA39D" transform="translate(202,163)"/>
<path d="M0 0 C2.97 0.495 2.97 0.495 6 1 C6 1.99 6 2.98 6 4 C3.36 3.67 0.72 3.34 -2 3 C-1.34 2.01 -0.68 1.02 0 0 Z " fill="#7C8990" transform="translate(200,135)"/>
<path d="M0 0 C0.66 0 1.32 0 2 0 C3.5625 2.8125 3.5625 2.8125 5 6 C4.67 6.99 4.34 7.98 4 9 C0 3.375 0 3.375 0 0 Z " fill="#B6A496" transform="translate(217,93)"/>
<path d="M0 0 C0.99 0.33 1.98 0.66 3 1 C3 2.32 3 3.64 3 5 C1.68 5 0.36 5 -1 5 C-0.67 3.35 -0.34 1.7 0 0 Z " fill="#E9E2DA" transform="translate(207,167)"/>
<path d="M0 0 C1.32 0 2.64 0 4 0 C4 2.97 4 5.94 4 9 C3.67 9 3.34 9 3 9 C2.896875 8.05125 2.79375 7.1025 2.6875 6.125 C2.31460705 2.70892499 2.31460705 2.70892499 -1 1 C-0.67 0.67 -0.34 0.34 0 0 Z " fill="#928882" transform="translate(207,165)"/>
<path d="M0 0 C0 1.65 0 3.3 0 5 C-1.9375 4.6875 -1.9375 4.6875 -4 4 C-4.33 3.01 -4.66 2.02 -5 1 C-1.125 0 -1.125 0 0 0 Z " fill="#635950" transform="translate(230,157)"/>
<path d="M0 0 C0.66 1.32 1.32 2.64 2 4 C1.01 5.485 1.01 5.485 0 7 C-0.99 6.67 -1.98 6.34 -3 6 C-2.67 5.01 -2.34 4.02 -2 3 C-1.34 3 -0.68 3 0 3 C0 2.01 0 1.02 0 0 Z " fill="#94B5AA" transform="translate(142,154)"/>
</svg>
